<?xml version="1.0" encoding="UTF-8"?>
<svg width="131px" height="130px" viewBox="0 0 131 130" version="1.1" xmlns="http://www.w3.org/2000/svg" xmlns:xlink="http://www.w3.org/1999/xlink">
    <title>linkedin-seeklogo.com</title>
    <g id="Page-1" stroke="none" stroke-width="1" fill="none" fill-rule="evenodd">
        <g id="linkedin-seeklogo.com" fill="#000000" fill-rule="nonzero">
            <path d="M120.763599,0 C125.958037,0 130.206933,4.0394063 130.351902,9.07342559 L130.355726,9.33927592 L130.355726,120.224619 C130.355726,125.297021 126.196389,129.429966 121.0361,129.570973 L120.763599,129.574692 L10.342566,129.574692 C5.15697134,129.574692 0.927347615,125.529203 0.783040017,120.490704 L0.779234,120.224619 L0.779234,9.33927592 C0.779234,4.27129507 4.91945093,0.144509796 10.0705396,0.00371338919 L10.342566,0 L120.763599,0 Z M39.208928,48.5779121 L19.990482,48.5779121 L19.990482,110.414735 L39.208928,110.414735 L39.208928,48.5779121 Z M88.138671,47.0392127 C78.789497,47.0392127 72.519522,52.1655114 69.955023,57.026362 L69.955023,57.026362 L69.699473,57.026362 L69.699473,48.5779121 L51.262974,48.5779121 L51.262974,110.414735 L70.467923,110.414735 L70.467923,79.8243093 C70.467923,79.2680317 70.4752072,78.7129611 70.4920515,78.1615766 L70.5121669,77.6115128 C70.8211972,70.3876016 72.9191064,63.9460105 82.00097,63.9460105 C90.3228644,63.9460105 91.7117049,70.5229482 91.9424193,76.8891957 L91.9583327,77.3912328 C91.960619,77.4747914 91.9627311,77.5582827 91.9646822,77.6416911 L91.9745614,78.1410234 C91.9827186,78.6391139 91.9860256,79.133108 91.9873239,79.6196658 L91.98812,110.414735 L111.193069,110.414735 L111.193069,76.4958594 C111.193069,59.8464112 107.60007,47.0392127 88.138671,47.0392127 Z M29.603304,17.8390158 C23.444907,17.8390158 18.458981,22.8321406 18.458981,28.9788401 C18.458981,35.1300387 23.444907,40.1249631 29.603304,40.1249631 C35.749104,40.1249631 40.741329,35.1300387 40.741329,28.9788401 C40.741329,22.8321406 35.749104,17.8390158 29.603304,17.8390158 Z" id="Combined-Shape"></path>
        </g>
    </g>
</svg>